<?xml version="1.0" standalone="no"?>
<!DOCTYPE svg PUBLIC "-//W3C//DTD SVG 20010904//EN"
 "http://www.w3.org/TR/2001/REC-SVG-20010904/DTD/svg10.dtd">
<svg version="1.0" xmlns="http://www.w3.org/2000/svg"
 width="400.000000pt" height="400.000000pt" viewBox="0 0 400.000000 400.000000"
 preserveAspectRatio="xMidYMid meet">

<g transform="translate(0.000000,400.000000) scale(0.100000,-0.100000)"
fill="#000000" stroke="none">
<path d="M2795 3850 c-110 -4 -201 -7 -202 -8 -2 -1 -3 -8 -3 -16 0 -13 62
-44 405 -200 l160 -73 82 -184 c46 -101 99 -223 119 -271 20 -48 45 -94 54
-103 17 -16 19 -15 30 4 6 12 19 180 31 396 22 416 22 417 -41 450 -31 16
-221 18 -635 5z"/>
<path d="M1715 3749 c-181 -21 -363 -83 -531 -179 -349 -200 -597 -563 -670
-980 -18 -98 -19 -178 -19 -1160 l0 -1055 33 -67 c86 -175 287 -254 455 -180
70 31 149 111 183 185 l29 62 7 1030 c6 907 8 1040 23 1110 52 250 245 455
490 520 124 33 320 16 447 -39 l37 -16 260 248 c142 136 260 250 260 253 2 10
-131 95 -209 134 -94 47 -258 101 -368 120 -110 20 -323 27 -427 14z"/>
<path d="M2925 2848 c-104 -99 -228 -218 -275 -263 l-86 -83 0 -114 c0 -186
-53 -329 -168 -454 -206 -226 -529 -287 -814 -154 -35 17 -65 30 -66 30 -1 0
-3 -170 -5 -378 l-3 -378 39 -12 c232 -68 537 -59 784 23 83 28 246 109 319
158 260 176 463 442 559 732 84 253 93 524 25 776 -26 98 -102 299 -113 298
-3 0 -91 -81 -196 -181z"/>
<path d="M1800 2701 c-87 -27 -174 -104 -213 -189 -34 -73 -31 -198 6 -274 36
-74 119 -150 189 -174 155 -53 324 13 403 158 23 43 30 68 33 134 6 109 -14
167 -81 241 -72 78 -148 113 -242 112 -38 0 -81 -4 -95 -8z"/>
</g>
</svg>
